<?xml version="1.0" encoding="utf-8"?>
<!-- Generator: Adobe Illustrator 23.0.5, SVG Export Plug-In . SVG Version: 6.00 Build 0)  -->
<svg version="1.1" id="Layer_1" xmlns="http://www.w3.org/2000/svg" xmlns:xlink="http://www.w3.org/1999/xlink" x="0px" y="0px"
	 viewBox="0 0 413 441" style="enable-background:new 0 0 413 441;" xml:space="preserve">
<style type="text/css">
	.st0{fill:url(#SVGID_1_);}
	.st1{opacity:0.5;}
	.st2{fill:#FFFFFF;}
	.st3{opacity:0.17;fill:#A5BDFD;}
	.st4{opacity:0.2;fill:#A5BDFD;}
	.st5{fill:#77529E;}
	.st6{opacity:0.3;fill:#77529E;}
	.st7{opacity:0.6;fill:#77529E;}
	.st8{opacity:0.17;}
	.st9{fill:#A5BDFD;}
	.st10{opacity:0.7;fill:#A5BDFD;}
	.st11{fill:#FFC3BD;}
	.st12{fill:#1A2E35;}
	.st13{opacity:0.2;}
	.st14{opacity:0.2;fill:#77529E;}
	.st15{fill:#007CFF;}
	.st16{opacity:0.5;fill:#FFFFFF;}
	.st17{fill:#FF847F;}
	.st18{opacity:0.5;fill:#A5BDFD;}
	.st19{fill:#D9F2FF;}
	.st20{opacity:0.3;fill:#D9F2FF;}
	.st21{opacity:0.3;}
	.st22{opacity:0.67;fill:#FF8866;}
	.st23{fill:#DCB5FF;}
	.st24{fill:none;stroke:#000000;stroke-miterlimit:10;}
</style>
<g>
	<g>
		<circle class="st5" cx="204.83" cy="228.14" r="114.95"/>
		<path class="st6" d="M371.8,151.87c-10.61-23.18-25.66-43.58-44.74-60.63l3.07-3.44c19.56,17.48,34.99,38.39,45.86,62.15
			L371.8,151.87z"/>
		<path class="st6" d="M51.15,127.77l-3.86-2.53C82.23,71.86,141.12,40,204.83,40v4.61C142.68,44.61,85.23,75.7,51.15,127.77z"/>
		<path class="st6" d="M89.69,376.96C66.74,359.17,47.95,336,35.35,309.95l4.15-2.01c12.29,25.42,30.62,48.02,53.01,65.37
			L89.69,376.96z"/>
		<path class="st6" d="M290.19,395.85l-2.1-4.11c29.69-15.14,54.75-38.11,72.45-66.41l3.91,2.45
			C346.31,356.79,320.62,380.33,290.19,395.85z"/>
		<path class="st7" d="M60.17,228.14h-4.61c0-82.31,66.96-149.28,149.28-149.28v4.61C125.06,83.48,60.17,148.38,60.17,228.14z"/>
		<path class="st7" d="M204.83,377.42v-4.61c79.76,0,144.66-64.89,144.66-144.66h4.61C354.1,310.45,287.13,377.42,204.83,377.42z"/>
	</g>
</g>
</svg>
