<?xml version="1.0" encoding="utf-8"?>
<!-- Generator: Adobe Illustrator 23.0.5, SVG Export Plug-In . SVG Version: 6.00 Build 0)  -->
<svg version="1.1" id="Layer_1" xmlns="http://www.w3.org/2000/svg" xmlns:xlink="http://www.w3.org/1999/xlink" x="0px" y="0px"
	 viewBox="0 0 596 505" style="enable-background:new 0 0 596 505;" xml:space="preserve">
<style type="text/css">
	.st0{fill:url(#SVGID_1_);}
	.st1{opacity:0.5;}
	.st2{fill:#FFFFFF;}
	.st3{opacity:0.17;fill:#A5BDFD;}
	.st4{opacity:0.2;fill:#A5BDFD;}
	.st5{fill:#77529E;}
	.st6{opacity:0.3;fill:#77529E;}
	.st7{opacity:0.6;fill:#77529E;}
	.st8{opacity:0.17;}
	.st9{fill:#A5BDFD;}
	.st10{opacity:0.7;fill:#A5BDFD;}
	.st11{fill:#FFC3BD;}
	.st12{fill:#1A2E35;}
	.st13{opacity:0.2;}
	.st14{opacity:0.2;fill:#77529E;}
	.st15{fill:#007CFF;}
	.st16{opacity:0.5;fill:#FFFFFF;}
	.st17{fill:#FF847F;}
	.st18{opacity:0.5;fill:#A5BDFD;}
	.st19{fill:#D9F2FF;}
	.st20{opacity:0.3;fill:#D9F2FF;}
	.st21{opacity:0.3;}
	.st22{opacity:0.67;fill:#FF8866;}
	.st23{fill:#DCB5FF;}
	.st24{fill:none;stroke:#000000;stroke-miterlimit:10;}
</style>
<g>
	<ellipse id="_x3C_Path_x3E__1_" class="st4" cx="317.83" cy="442.79" rx="225.32" ry="13.16"/>
	<g>
		<g>
			<g>
				<circle class="st5" cx="429.25" cy="89.38" r="28.95"/>
				<path class="st6" d="M471.3,70.17c-2.67-5.84-6.46-10.97-11.27-15.27l0.77-0.87c4.93,4.4,8.81,9.67,11.55,15.65L471.3,70.17z"/>
				<path class="st6" d="M390.55,64.1l-0.97-0.64C398.38,50.02,413.21,42,429.25,42v1.16C413.6,43.16,399.14,50.99,390.55,64.1z"/>
				<path class="st6" d="M400.26,126.86c-5.78-4.48-10.51-10.31-13.68-16.88l1.05-0.51c3.1,6.4,7.71,12.09,13.35,16.46
					L400.26,126.86z"/>
				<path class="st6" d="M450.75,131.62l-0.53-1.03c7.48-3.81,13.79-9.6,18.25-16.73l0.99,0.62
					C464.88,121.78,458.42,127.71,450.75,131.62z"/>
				<path class="st7" d="M392.82,89.38h-1.16c0-20.73,16.86-37.59,37.59-37.59v1.16C409.16,52.95,392.82,69.29,392.82,89.38z"/>
				<path class="st7" d="M429.25,126.98v-1.16c20.09,0,36.43-16.34,36.43-36.43h1.16C466.85,110.11,449.98,126.98,429.25,126.98z"/>
			</g>
		</g>
		<g class="st8">
			<path class="st9" d="M239.03,98.27c36.88,0,42.47-29.03,18.66-29.03c-12.95,0-27.25,15.65-40.2,15.65
				c-12.95,0,8.09-24.46-4.86-24.46c-16.84,0-34.81,24.46-46.93,24.46c-12.95,0-2.08-11.18-15.03-11.18
				c-11.44,0-24.2,11.72-53.09,21.03c-2.54,0.82-2.8,3.53-0.34,3.53H239.03z"/>
			<path class="st10" d="M239.03,98.27c36.88,0,42.47-29.03,18.66-29.03c-12.95,0-27.25,15.65-40.2,15.65
				c-12.95,0,8.09-24.46-4.86-24.46c-16.84,0-34.81,24.46-46.93,24.46c-12.95,0-2.08-11.18-15.03-11.18
				c-11.44,0-24.2,11.72-53.09,21.03c-2.54,0.82-2.8,3.53-0.34,3.53H239.03z"/>
		</g>
		<g class="st8">
			<path class="st9" d="M499.67,183.48c19.45,0,30.35-21.69,20.67-21.69c-9.67,0-27.08,11.69-36.76,11.69
				c-9.67,0,13.12-18.27,3.44-18.27c-9.67,0-32.46,18.27-42.13,18.27c-9.67,0,7.06-11.37-2.62-11.37
				c-8.54,0-26.69,11.77-48.26,18.72c-1.9,0.61-2.09,2.64-0.25,2.64H499.67z"/>
			<path class="st10" d="M499.67,183.48c19.45,0,30.35-21.69,20.67-21.69c-9.67,0-27.08,11.69-36.76,11.69
				c-9.67,0,13.12-18.27,3.44-18.27c-9.67,0-32.46,18.27-42.13,18.27c-9.67,0,7.06-11.37-2.62-11.37
				c-8.54,0-26.69,11.77-48.26,18.72c-1.9,0.61-2.09,2.64-0.25,2.64H499.67z"/>
		</g>
		<g class="st8">
			<path class="st9" d="M230.18,221.21c11.5,0,13.96-12.82,8.24-12.82c-5.72,0-12.03,6.91-17.75,6.91c-5.72,0,3.57-10.8-2.15-10.8
				c-8.62,0-16.33,10.8-20.73,10.8c-5.72,0-0.92-4.94-6.64-4.94c-5.05,0-10.69,5.18-23.45,9.29c-1.12,0.36-1.24,1.56-0.15,1.56
				H230.18z"/>
			<path class="st10" d="M230.18,221.21c11.5,0,13.96-12.82,8.24-12.82c-5.72,0-12.03,6.91-17.75,6.91c-5.72,0,3.57-10.8-2.15-10.8
				c-8.62,0-16.33,10.8-20.73,10.8c-5.72,0-0.92-4.94-6.64-4.94c-5.05,0-10.69,5.18-23.45,9.29c-1.12,0.36-1.24,1.56-0.15,1.56
				H230.18z"/>
		</g>
	</g>
	<g>
		<path class="st11" d="M334.71,172.15l1.46-0.43l1.56-0.48c1.05-0.33,2.09-0.69,3.12-1.07c2.07-0.74,4.1-1.58,6.05-2.49
			c1.94-0.94,3.87-1.9,5.59-3.04c0.46-0.27,0.85-0.58,1.28-0.86c0.43-0.29,0.85-0.58,1.22-0.9l0.59-0.47
			c0.18-0.13,0.51-0.44,0.26-0.15c-0.23,0.31-0.26,0.56-0.23,0.53c0.07-0.06,0.15-0.84,0.01-1.68c-0.12-0.86-0.36-1.83-0.67-2.83
			c-0.58-2.01-1.44-4.08-2.33-6.16c-1.84-4.14-3.96-8.36-6.13-12.44l4.27-3.03c3.24,3.73,6.15,7.58,8.77,11.83
			c1.31,2.12,2.52,4.34,3.59,6.79c0.52,1.23,0.99,2.53,1.37,4c0.33,1.48,0.69,3.11,0.32,5.4c-0.21,1.14-0.69,2.51-1.69,3.74
			c-0.64,0.74-0.77,0.8-1.03,1.07l-0.74,0.72c-0.49,0.49-1.01,0.93-1.53,1.36c-0.52,0.43-1.03,0.89-1.58,1.26
			c-2.14,1.63-4.38,2.98-6.67,4.2c-2.29,1.22-4.63,2.26-7.02,3.17c-1.2,0.44-2.4,0.85-3.62,1.24c-1.25,0.4-2.39,0.72-3.83,1.04
			L334.71,172.15z"/>
		<path class="st11" d="M348.23,140.79l-7.75-4.1l8.28-6.05c0,0,4.24,4.17,3.17,9.74L348.23,140.79z"/>
		<polygon class="st11" points="337.05,128.78 344.03,125.44 348.77,130.64 340.49,136.69 		"/>
		<polygon class="st11" points="296.31,434.72 305.95,435.65 311.83,413.09 302.18,412.17 		"/>
		<polygon class="st11" points="249.62,412.53 258.09,417.38 269.14,397.4 260.67,392.54 		"/>
		<path class="st12" d="M259.34,415.81l-7.43-8.14c-0.27-0.3-0.7-0.35-1.02-0.13l-7.29,4.95c-0.76,0.51-0.86,1.67-0.23,2.34
			c2.64,2.79,4.05,4.01,7.32,7.59c2.01,2.2,6.13,7.37,8.91,10.41c2.72,2.98,5.93,0.46,5.05-1.06c-3.96-6.79-4.51-10.97-4.65-14.35
			C259.97,416.82,259.73,416.24,259.34,415.81z"/>
		<path class="st12" d="M307.94,432.72l-11.64,0c-0.42,0-0.81,0.29-0.92,0.71l-2.53,9.21c-0.26,0.96,0.44,1.83,1.42,1.84
			c4.1,0.04,6.05,0.02,11.17,0.02c3.15,0,11.3,0,15.64,0c4.25,0,5.14-4.3,3.38-4.69c-7.89-1.75-12.44-4.15-14.87-6.45
			C309.15,432.94,308.56,432.72,307.94,432.72z"/>
		<polygon class="st13" points="311.82,413.1 308.79,424.73 298.91,424.73 302.18,412.17 		"/>
		<polygon class="st13" points="260.66,392.55 269.14,397.41 263.44,407.71 254.96,402.85 		"/>
		<g>
			<g>
				<circle class="st5" cx="306.56" cy="127.85" r="18.96"/>
				<circle class="st14" cx="306.56" cy="127.85" r="18.96"/>
			</g>
		</g>
		<path class="st9" d="M315.17,145.75c-15.11,6.85-37.58,16.06-50.22,5.49c-18.75-15.68,18.95-15.8,43.96-35.92
			c18.83-15.14,40.97-17.36,44.37-8.07C358.84,122.47,342.4,133.4,315.17,145.75z"/>
		<path class="st13" d="M325.34,121.58c-7.01-2.15-27.52,4.76-27.52,4.76c-3.58,2.24-15.5,17.83-16.39,29.65
			c11.24-0.45,24.01-5.83,33.74-10.25c7.14-3.23,13.54-6.37,18.99-9.52C334.27,130.39,330.34,123.13,325.34,121.58z"/>
		<path class="st12" d="M312.1,120.54c0,0-17.26-0.18-20.87,14.09c-3.62,14.27,4.71,15.23-0.39,22.07
			c-5.1,6.84-10.01,9.81-8.72,15.49c1.29,5.68-11.84,6.77-10.65,15.18c3.74,26.47,62.35,18.91,62.91-0.09
			c0.56-19-14.03-17.93-7.71-24.26c6.32-6.33,7.81-12.53,2.77-17.24C324.41,141.07,342.27,113.18,312.1,120.54z"/>
		<path class="st5" d="M336.45,171.48c0,0,8.13,2.05,0.42,59.87l-39.83,1.14c2.58-19.82-0.77-33.76-7.08-52.75
			c-1.18-3.55,1.43-7.28,5.11-7.93c2.91-0.51,6.46-1.04,10.05-1.31c6.69-0.52,12.18-0.89,18.09-0.52
			C331,170.47,336.45,171.48,336.45,171.48z"/>
		<path class="st13" d="M297.78,178.78l-6.67,4.51c1.43,4.43,2.67,8.6,3.7,12.68C296.7,189.85,297.91,180.78,297.78,178.78z"/>
		<path class="st11" d="M306.33,150.08c1.31,5.79,2.75,16.42-1.21,20.42c0,0,4.58,9.05,19.3,15.06c5.7-9.94-1.21-15.57-1.21-15.57
			c-6.53-1.36-6.5-6.18-5.5-10.74L306.33,150.08z"/>
		<path class="st13" d="M310.97,153.82l6.73,5.42c-0.24,1.08-0.42,2.17-0.47,3.23c-2.49-0.29-6.29-2.4-6.63-4.99
			C310.44,156.19,310.77,154.43,310.97,153.82z"/>
		<path class="st11" d="M300.12,141.52c3.52,9.08,4.82,13,11.02,16.25c9.32,4.9,19.7-1.41,18.95-11.36
			c-0.67-8.95-6.32-22.29-16.56-23.09C303.44,122.55,296.59,132.44,300.12,141.52z"/>
		<path class="st12" d="M311.95,126.06c0.72,6.3-4.19,15.98-9.61,20.12c0.21,5.49-9.56,0.76-8.01-8.21
			C295.88,129,310.72,115.29,311.95,126.06z"/>
		<path class="st12" d="M312.17,141.03l-17.32,7.27c-0.23,0.1-0.5-0.01-0.6-0.25l0,0c-0.1-0.23,0.01-0.5,0.25-0.6l17.32-7.27
			c0.23-0.1,0.5,0.01,0.6,0.25l0,0C312.52,140.66,312.41,140.93,312.17,141.03z"/>
		<path class="st12" d="M307.37,127.06c2.86,3.19,21.63,4.82,19.23-0.39C323.14,119.19,300.25,119.13,307.37,127.06z"/>
		<path class="st11" d="M300.26,149.55c1.13,1.68,2.92,2.67,4.55,2.97c2.46,0.44,3.45-1.81,2.57-4.01c-0.79-1.98-3.02-4.58-5.4-4.03
			C299.65,145.02,298.97,147.63,300.26,149.55z"/>
		<path class="st5" d="M336.87,231.35c0,0,10.82,59.13,1.85,101.02c-6.01,28.06-25.79,88.98-25.79,88.98l-15.15-0.39
			c0,0,13.49-67.03,19.85-86.98c5.8-40.01-6.97-101.89-6.97-101.89L336.87,231.35z"/>
		<path class="st13" d="M322.35,260.57c-2.05-8.59-4.72-5.39-6.67,2.41c1.43,10.84,2.72,23.49,3.23,36.15
			C321.8,290.97,325.91,275.53,322.35,260.57z"/>
		<polygon class="st9" points="314.31,423.25 296.42,421.29 297.33,415.04 315.59,417.5 		"/>
		<path class="st5" d="M328.17,231.71c0,0-8.61,65.98-25.69,100.38c-13.8,27.79-35.29,74.27-35.29,74.27l-11.4-7.26
			c0,0,18.34-57.83,25.36-72.75c22.02-46.86,3.63-75.72,15.88-93.86L328.17,231.71z"/>
		<polygon class="st9" points="268.43,407.41 253.87,398.69 256.53,392.43 272.03,401.96 		"/>
		<g>
			<path class="st15" d="M296.37,230.17l-1.69,3.62c-0.13,0.28,0.2,0.55,0.66,0.54l41.77-1.2c0.36-0.01,0.65-0.19,0.67-0.42
				l0.26-3.58c0.02-0.25-0.3-0.45-0.69-0.44l-40.34,1.16C296.72,229.86,296.46,229.99,296.37,230.17z"/>
			<path class="st16" d="M296.37,230.17l-1.69,3.62c-0.13,0.28,0.2,0.55,0.66,0.54l41.77-1.2c0.36-0.01,0.65-0.19,0.67-0.42
				l0.26-3.58c0.02-0.25-0.3-0.45-0.69-0.44l-40.34,1.16C296.72,229.86,296.46,229.99,296.37,230.17z"/>
		</g>
		<path class="st12" d="M301.92,234.52l-1.08,0.03c-0.22,0.01-0.38-0.1-0.37-0.24l0.37-4.65c0.01-0.14,0.2-0.25,0.41-0.26l1.08-0.03
			c0.22-0.01,0.38,0.1,0.37,0.24l-0.37,4.65C302.32,234.4,302.13,234.52,301.92,234.52z"/>
		<path class="st12" d="M334.09,233.6l-1.08,0.03c-0.22,0.01-0.38-0.1-0.37-0.24l0.37-4.65c0.01-0.14,0.2-0.25,0.41-0.26l1.08-0.03
			c0.22-0.01,0.38,0.1,0.37,0.24l-0.37,4.65C334.49,233.48,334.31,233.6,334.09,233.6z"/>
		<path class="st12" d="M318,234.06l-1.08,0.03c-0.22,0.01-0.38-0.1-0.37-0.24l0.37-4.65c0.01-0.14,0.2-0.25,0.41-0.26l1.08-0.03
			c0.22-0.01,0.38,0.1,0.37,0.24l-0.37,4.65C318.4,233.94,318.22,234.06,318,234.06z"/>
		<path class="st12" d="M315.93,139.37c0.24,0.75,0.84,1.24,1.33,1.08c0.49-0.16,0.7-0.9,0.46-1.65c-0.24-0.75-0.84-1.24-1.33-1.08
			C315.89,137.88,315.69,138.62,315.93,139.37z"/>
		<path class="st12" d="M324.45,136.65c0.24,0.75,0.84,1.24,1.33,1.08c0.49-0.16,0.7-0.9,0.46-1.65c-0.24-0.75-0.84-1.24-1.33-1.08
			C324.41,135.16,324.21,135.9,324.45,136.65z"/>
		<path class="st12" d="M324.7,135.11l1.64-1.1C326.34,134.01,325.87,135.72,324.7,135.11z"/>
		<path class="st17" d="M321.67,138.92c0,0,2.32,2.84,4.22,3.95c-0.7,1.25-2.53,1.36-2.53,1.36L321.67,138.92z"/>
		<path class="st12" d="M320.23,148.32c-2.73,0.32-4.5-1.1-4.59-1.17c-0.08-0.07-0.09-0.19-0.03-0.27c0.07-0.08,0.19-0.1,0.27-0.03
			c0.02,0.02,2.33,1.85,5.65,0.79c0.11-0.04,0.21,0.02,0.24,0.12c0.03,0.1-0.02,0.21-0.12,0.24
			C321.15,148.17,320.68,148.27,320.23,148.32z"/>
		<path class="st12" d="M309.21,135.48c-0.07,0-0.14-0.01-0.2-0.05c-0.19-0.11-0.25-0.34-0.15-0.53c1.24-2.2,3.34-2.36,3.43-2.37
			c0.23,0,0.39,0.15,0.41,0.36c0.01,0.21-0.15,0.4-0.36,0.41c-0.07,0.01-1.78,0.15-2.81,1.98
			C309.47,135.41,309.34,135.48,309.21,135.48z"/>
		<path class="st12" d="M325.77,130.06c-0.06,0.03-0.12,0.04-0.19,0.03c-2.11-0.16-3.19,1.22-3.2,1.23
			c-0.13,0.17-0.37,0.2-0.54,0.07c-0.17-0.13-0.2-0.37-0.07-0.54c0.05-0.07,1.35-1.73,3.88-1.53c0.21,0.02,0.37,0.2,0.36,0.41
			C325.98,129.88,325.89,130,325.77,130.06z"/>
		<path class="st12" d="M322.97,135.66c-0.06,0.03-0.12,0.04-0.19,0.03c-2.11-0.16-3.19,1.22-3.2,1.23
			c-0.13,0.17-0.37,0.2-0.54,0.07c-0.17-0.13-0.2-0.37-0.07-0.54c0.05-0.07,1.35-1.73,3.88-1.53c0.21,0.02,0.37,0.2,0.36,0.41
			C323.18,135.48,323.09,135.6,322.97,135.66z"/>
		<g>
			<path class="st9" d="M298.29,169.37l0.09,2.37c13.37-0.49,24.7,12.44,25.3,28.87c0.6,16.43-9.76,30.15-23.13,30.64l0.09,2.38
				c14.44-0.53,25.63-15.34,24.98-33.09C324.96,182.79,312.72,168.84,298.29,169.37z"/>
			<path class="st18" d="M298.29,169.37l0.09,2.37c13.37-0.49,24.7,12.44,25.3,28.87c0.6,16.43-9.76,30.15-23.13,30.64l0.09,2.38
				c14.44-0.53,25.63-15.34,24.98-33.09C324.96,182.79,312.72,168.84,298.29,169.37z"/>
		</g>
		<g>
			<path class="st9" d="M298.29,169.37l0.09,2.37c-13.37,0.49-23.73,14.2-23.13,30.64c0.6,16.43,11.93,29.36,25.3,28.87l0.09,2.38
				c-14.44,0.53-26.68-13.44-27.32-31.18C272.66,184.7,283.85,169.89,298.29,169.37z"/>
			<path class="st18" d="M298.29,169.37l0.09,2.37c-13.37,0.49-23.73,14.2-23.13,30.64c0.6,16.43,11.93,29.36,25.3,28.87l0.09,2.38
				c-14.44,0.53-26.68-13.44-27.32-31.18C272.66,184.7,283.85,169.89,298.29,169.37z"/>
		</g>
		<g>
			<g>
				<path class="st19" d="M322.05,245.52l-42.16,1.54c-8.35,0.3-15.07-6.79-14.33-15.11l0.66-7.22l1.23-13.67l0.45-4.95
					c0.17-1.9,1.73-3.38,3.63-3.45l55.77-2.03c1.92-0.07,3.58,1.3,3.88,3.18l0.88,5.53l2.33,14.72l0.86,5.42
					C336.56,237.71,330.38,245.22,322.05,245.52z"/>
				<path class="st20" d="M322.05,245.52l-42.16,1.54c-8.35,0.3-15.07-6.79-14.33-15.11l0.66-7.22l1.23-13.67l0.45-4.95
					c0.17-1.9,1.73-3.38,3.63-3.45l55.77-2.03c1.92-0.07,3.58,1.3,3.88,3.18l0.88,5.53l2.33,14.72l0.86,5.42
					C336.56,237.71,330.38,245.22,322.05,245.52z"/>
			</g>
			<g>
				<path class="st9" d="M334.39,224.06c-3.05-0.81-5.03-2.72-10.3-2.53c-7.85,0.29-7.74,3.42-15.6,3.71
					c-7.85,0.29-7.96-2.85-15.83-2.56c-7.86,0.29-7.75,3.42-15.61,3.71c-5.82,0.21-7.28-0.73-10.83-1.65l1.23-13.67
					c2.46,0.92,4.55,2.33,9.11,2.17c7.85-0.29,7.74-3.43,15.6-3.72c7.85-0.29,7.97,2.86,15.83,2.57c7.86-0.29,7.75-3.43,15.61-3.72
					c4.37-0.16,6.28,0.34,8.46,0.98L334.39,224.06z"/>
			</g>
		</g>
		<path class="st11" d="M297.8,181.45c-3.5,4.22-7.05,8.68-10.29,13.13c-1.61,2.24-3.14,4.52-4.52,6.79
			c-1.36,2.25-2.59,4.61-3.2,6.55c-0.29,0.97-0.36,1.51-0.3,2.47c0.06,0.91,0.3,1.98,0.67,3.08c0.76,2.2,1.99,4.54,3.4,6.79
			c1.41,2.27,3.03,4.5,4.73,6.69c1.68,2.19,3.54,4.36,5.34,6.4l0.09,0.1c0.96,1.09,0.86,2.75-0.22,3.71
			c-0.94,0.84-2.32,0.87-3.3,0.15c-4.88-3.58-9.25-7.54-13.18-12.33c-1.92-2.42-3.77-5-5.18-8.14c-0.7-1.57-1.31-3.27-1.63-5.21
			c-0.34-1.89-0.24-4.27,0.22-6.08c0.87-3.63,2.27-6.45,3.73-9.2c1.46-2.74,3.09-5.28,4.76-7.76c3.37-4.97,6.92-9.57,10.9-14.1
			c1.93-2.19,5.27-2.41,7.46-0.48c2.15,1.89,2.4,5.15,0.58,7.35L297.8,181.45z"/>
		<path class="st11" d="M291.59,231.55l8.09,3.38l-6.48,5.71c0,0-4.95-2.94-5.05-7.01L291.59,231.55z"/>
		<polygon class="st11" points="302.7,240.63 296.05,244.6 293.19,240.63 299.67,234.93 		"/>
		<path class="st9" d="M262.36,420.42c-0.12,0.03-0.25,0.04-0.38,0.03c-1.22-0.11-2.46-2.03-3.09-3.17
			c-0.04-0.07-0.03-0.15,0.02-0.21c0.05-0.06,0.13-0.09,0.2-0.07c0.39,0.1,3.8,1,4.18,2.17c0.06,0.18,0.08,0.45-0.16,0.74
			C262.89,420.18,262.64,420.35,262.36,420.42z M259.45,417.49c0.92,1.55,1.86,2.5,2.56,2.57c0.3,0.03,0.56-0.1,0.8-0.4
			c0.14-0.17,0.12-0.3,0.09-0.38C262.68,418.57,260.63,417.84,259.45,417.49z"/>
		<path class="st9" d="M262.13,417.36c-1.07,0.25-2.47,0.23-3.14,0.01c-0.07-0.02-0.11-0.08-0.13-0.14
			c-0.01-0.07,0.01-0.14,0.06-0.18c0.09-0.08,2.17-1.97,3.57-1.81c0.36,0.04,0.66,0.21,0.86,0.5c0.33,0.46,0.17,0.8,0.05,0.97
			C263.17,417.01,262.7,417.22,262.13,417.36z M259.46,417.08c1.13,0.19,3.18-0.01,3.63-0.62c0.07-0.1,0.14-0.25-0.05-0.52
			c-0.14-0.2-0.34-0.31-0.59-0.34C261.5,415.51,260.07,416.59,259.46,417.08z"/>
		<path class="st9" d="M313.1,434.6c-1.12,0-2.33-0.22-3.18-0.4c-0.08-0.02-0.14-0.09-0.15-0.17c-0.01-0.08,0.04-0.16,0.11-0.2
			c0.48-0.23,4.7-2.18,5.76-1.46c0.14,0.09,0.29,0.27,0.28,0.6c-0.03,0.45-0.22,0.82-0.58,1.09
			C314.82,434.47,313.99,434.6,313.1,434.6z M310.59,433.94c1.25,0.23,3.57,0.54,4.53-0.18c0.26-0.2,0.4-0.46,0.42-0.8
			c0.01-0.16-0.05-0.22-0.11-0.26C314.84,432.3,312.34,433.17,310.59,433.94z"/>
		<path class="st9" d="M309.97,434.21c-0.04,0-0.09-0.02-0.12-0.05c-0.05-0.05-0.08-0.12-0.06-0.19c0.04-0.18,1-4.34,3.29-4.08
			c0.57,0.07,0.73,0.35,0.76,0.58c0.14,1.06-2.52,3.2-3.79,3.72C310.01,434.2,309.99,434.21,309.97,434.21z M312.86,430.27
			c-1.46,0-2.32,2.42-2.6,3.39c1.38-0.72,3.28-2.46,3.19-3.14c-0.01-0.05-0.03-0.2-0.43-0.25
			C312.97,430.27,312.91,430.27,312.86,430.27z"/>
		<path class="st12" d="M316.18,137.83l1.64-1.1C317.82,136.73,317.34,138.44,316.18,137.83z"/>
		<g>
			<path class="st12" d="M321.04,138.92c0,2.84-2.3,5.14-5.14,5.14c-2.84,0-5.14-2.3-5.14-5.14c0-2.84,2.3-5.14,5.14-5.14
				C318.74,133.78,321.04,136.08,321.04,138.92z"/>
			<g class="st21">
				<path class="st2" d="M315.9,133.78h-0.08l-1.72,9.95c0.56,0.22,1.17,0.34,1.8,0.34c0.25,0,0.52-0.01,0.75-0.06l1.66-9.62
					C317.59,134,316.77,133.78,315.9,133.78z"/>
				<path class="st2" d="M318.84,134.72l-1.58,9.16c0.57-0.15,1.12-0.42,1.59-0.75l1.23-7.19
					C319.74,135.46,319.33,135.04,318.84,134.72z"/>
			</g>
		</g>
		<g>
			<path class="st12" d="M332.42,135.05c0,2.84-2.3,5.14-5.14,5.14c-2.84,0-5.14-2.3-5.14-5.14c0-2.84,2.3-5.14,5.14-5.14
				C330.12,129.91,332.42,132.21,332.42,135.05z"/>
			<g class="st21">
				<path class="st2" d="M327.28,129.91h-0.08l-1.72,9.95c0.56,0.22,1.17,0.34,1.8,0.34c0.25,0,0.52-0.01,0.75-0.06l1.66-9.62
					C328.97,130.14,328.15,129.91,327.28,129.91z"/>
				<path class="st2" d="M330.22,130.85l-1.58,9.16c0.57-0.15,1.12-0.42,1.59-0.75l1.23-7.19
					C331.13,131.59,330.71,131.17,330.22,130.85z"/>
			</g>
		</g>
	</g>
</g>
</svg>
